HIERARCHY
ROOT pelvis
{
  OFFSET 0 100 0
  CHANNELS 6 Xposition Yposition Zposition Zrotation Xrotation Yrotation
  JOINT pelvis_right_femur
  {
    OFFSET -10.78128 -3.44521 -0.5502486
    CHANNELS 3 Zrotation Xrotation Yrotation
    JOINT right_femur_tibia
    {
      OFFSET -0.8047443 -44.0398 -0.1307829
      CHANNELS 3 Zrotation Xrotation Yrotation
      JOINT right_tibia_foot
      {
        OFFSET 3.006224 -47.83518 -5
        CHANNELS 3 Zrotation Xrotation Yrotation
        End Site
        {
          OFFSET 0 -5 15
        }
      }
    }
  }
  JOINT pelvis_left_femur
  {
    OFFSET 10.78128 -3.44521 -0.5502486
    CHANNELS 3 Zrotation Xrotation Yrotation
    JOINT left_femur_tibia
    {
      OFFSET 0.8047443 -44.0398 -0.1307829
      CHANNELS 3 Zrotation Xrotation Yrotation
      JOINT left_tibia_foot
      {
        OFFSET -4.370144 -48.10324 -4.275266
        CHANNELS 3 Zrotation Xrotation Yrotation
        End Site
        {
          OFFSET 0 -5 15
        }
      }
    }
  }
  JOINT pelvis_spine1
  {
    OFFSET 0 6.468898 -3.129235
    CHANNELS 3 Zrotation Xrotation Yrotation
    JOINT spine1
    {
      OFFSET 0 23.15396 4.99043
      CHANNELS 3 Zrotation Xrotation Yrotation
      JOINT spine2
      {
        OFFSET 0 20.79997 -5.064912
        CHANNELS 3 Zrotation Xrotation Yrotation
        JOINT neck
        {
          OFFSET 0 14.38658 9.616178
          CHANNELS 3 Zrotation Xrotation Yrotation
          End Site
          {
            OFFSET 0 20 0
          }
        }
      }
      JOINT right_manubrium
      {
        OFFSET -5.722621 16.35077 3.967754
        CHANNELS 3 Zrotation Xrotation Yrotation
        JOINT right_clavicle
        {
          OFFSET -13.16364 1.694482 -4.693211
          CHANNELS 3 Zrotation Xrotation Yrotation
          JOINT right_humerus
          {
            OFFSET -28.5034 -0.3100689 -2.792744
            CHANNELS 3 Zrotation Xrotation Yrotation
            JOINT right_radius
            {
              OFFSET -25.15693 0.02248979 -1.271978
              CHANNELS 3 Zrotation Xrotation Yrotation
              End Site
              {
                OFFSET -15 0 0
              }
            }
          }
        }
      }
      JOINT left_manubrium
      {
        OFFSET 5.722621 16.35077 3.967754
        CHANNELS 3 Zrotation Xrotation Yrotation
        JOINT left_clavicle
        {
          OFFSET 13.16364 1.694482 -4.693211
          CHANNELS 3 Zrotation Xrotation Yrotation
          JOINT left_humerus
          {
            OFFSET 29.39168 -1.063119 -2.237045
            CHANNELS 3 Zrotation Xrotation Yrotation
            JOINT left_radius
            {
              OFFSET 24.59957 -0.9528479 0.9047498
              CHANNELS 3 Zrotation Xrotation Yrotation
              End Site
              {
                OFFSET 15 -0 -0
              }
            }
          }
        }
      }
    }
  }
}
MOTION
Frames: 9
Frame Time: 0.0416666666667
506.454 99.79539 3151.388 1.735518 -2.711683 14.41656 1.699563 -27.79966 1.140292 -0 7.785722 -0 1.468304 1.52645 -7.069136 -5.166604 17.63493 -7.218689 -0 19.17677 -0 -5.112278 -19.21405 12.0853 -0.8526132 -3.939469 4.405685 -1.263908 9.05474 -3.688843 2.220571 22.51834 5.976679 0.6751476 -16.813 8.821996 -3.985558 -18.81008 6.636344 94.03354 16.81477 -17.36354 -0 0 8.43431 -19.3311 9.585923 15.86818 3.377982 -28.09409 -8.60911 -84.16479 24.81745 15.29075 0 0 -38.5543 1.956082 7.354152 24.55442
507.9289 99.07491 3158.473 1.399662 -2.600072 14.64315 2.917266 -26.59081 2.428991 -0 7.8216 -0 1.555534 2.097437 -7.342063 -4.879641 18.52354 -6.993381 -0 25.44642 -0 -6.04512 -17.14832 11.80942 -0.9080684 -3.855107 4.159497 -1.065413 9.085163 -3.918859 2.203098 22.76453 6.074226 0.7389669 -17.17085 8.888022 -4.055639 -18.43533 6.7647 94.55544 16.66173 -18.11305 -0 0 7.241189 -19.26841 9.226879 15.40082 3.497307 -28.29427 -8.535036 -83.89152 24.90414 14.24877 0 0 -38.50672 2.266004 7.742824 23.76262
509.3841 98.98352 3165.807 1.00228 -3.010852 14.67502 4.288661 -23.76246 3.939665 -0 10.25824 -0 1.27054 1.817668 -7.568489 -4.367351 18.00255 -6.868512 -0 33.08013 -0 -7.206548 -14.27905 11.83622 -0.8921353 -3.782193 4.035751 -0.8765894 9.401784 -4.164454 2.181918 22.88695 6.060484 0.7970448 -17.58052 8.825135 -4.080132 -18.43425 7.031539 94.98481 16.34645 -18.68156 -0 0 6.610314 -19.35946 9.087673 15.02912 3.556382 -28.33209 -8.530503 -84.03419 24.75334 14.01994 0 0 -37.88434 2.43878 8.121398 22.99837
510.7941 99.5345 3173.151 0.7226013 -3.857036 14.4298 5.443331 -19.66845 5.310389 -0 13.45888 -0 0.7556246 0.4992827 -7.707158 -3.781516 15.70493 -6.732849 -0 41.43372 -0 -8.13065 -11.18119 12.34107 -0.8018882 -3.736948 4.060402 -0.7368813 9.940103 -4.378477 2.159153 22.85801 5.939404 0.8358146 -17.96906 8.648316 -4.067064 -18.81929 7.391356 95.24285 15.9691 -18.94246 -0 0 6.673531 -19.60088 9.191413 14.84525 3.537404 -28.20321 -8.590047 -84.54109 24.35384 14.64823 0 0 -36.80985 2.473894 8.447115 22.34402
512.1315 100.5851 3180.266 0.7482825 -4.951962 13.89533 6.038956 -14.75919 6.181008 -0 15.87831 -0 0.07719467 -1.543755 -7.619778 -3.296991 11.52308 -6.577875 -0 49.46112 -0 -8.437565 -8.581637 13.39815 -0.6478496 -3.726259 4.237582 -0.6671419 10.61525 -4.531705 2.137383 22.67306 5.713284 0.8335516 -18.27708 8.378294 -4.032847 -19.56464 7.791023 95.28388 15.60649 -18.81725 -0 0 7.486028 -19.96177 9.533281 14.89709 3.433192 -27.90963 -8.687818 -85.33308 23.73667 16.07695 0 0 -35.39571 2.3666 8.683 21.87423
513.3701 101.8757 3186.982 1.152096 -6.04552 13.17988 5.941746 -9.394815 6.318822 -0 16.59683 -0 -0.6953245 -3.777884 -7.12208 -2.975919 5.730675 -6.471405 -0 55.67442 -0 -8.224813 -7.034391 14.80867 -0.450734 -3.746953 4.549582 -0.6696939 11.33983 -4.611916 2.11935 22.35137 5.389085 0.771908 -18.46447 8.039467 -3.990472 -20.60218 8.178302 95.09692 15.30415 -18.29123 -0 0 9.001154 -20.39212 10.08696 15.18191 3.250302 -27.4645 -8.790887 -86.32004 22.96978 18.1567 0 0 -33.74975 2.1116 8.800711 21.65244
514.507 103.0897 3193.258 1.797959 -6.925584 12.44158 5.37553 -3.857537 5.885007 -0 15.57909 -0 -1.276819 -5.835314 -6.241549 -2.65622 -1.035545 -6.316828 -0 58.46118 -0 -7.903922 -6.582782 16.22945 -0.2331416 -3.791198 4.96917 -0.7379822 12.04358 -4.615032 2.106385 21.92273 4.982489 0.6454104 -18.51083 7.655391 -3.943683 -21.84542 8.511318 94.69105 15.07943 -17.39422 -0 0 11.10851 -20.84539 10.81762 15.67005 3.007123 -26.89049 -8.873644 -87.42715 22.12912 20.70836 0 0 -31.97674 1.706784 8.776432 21.72979
515.5866 103.9073 3199.172 2.363817 -7.570473 11.74581 4.830539 1.489744 5.418467 -0 13.61609 -0 -1.330413 -7.74777 -5.323629 -1.969546 -7.927316 -5.793214 -0 56.62612 -0 -7.655724 -6.769585 17.50443 -0.01183427 -3.849989 5.472169 -0.8636847 12.68714 -4.541003 2.097294 21.41335 4.513692 0.4617672 -18.41784 7.243201 -3.890508 -23.22308 8.767848 94.08248 14.92728 -16.17087 -0 0 13.69551 -21.29749 11.69199 16.32714 2.728683 -26.20898 -8.921889 -88.61376 21.26549 23.5875 0 0 -30.15269 1.158805 8.593936 22.12472
516.6964 104.0794 3204.858 2.51721 -8.091667 11.0243 4.678551 6.248941 5.227613 -0 11.83979 -0 -0.997818 -9.921099 -4.646374 -0.6862634 -14.11256 -4.788234 -0 50.02919 -0 -7.3354 -7.093077 18.73071 0.1994063 -3.908588 6.032754 -1.033955 13.24895 -4.396009 2.088905 20.85188 4.008276 0.2375786 -18.21852 6.819919 -3.834534 -24.67618 8.943726 93.29827 14.8262 -14.67498 -0 0 16.64627 -21.74284 12.65921 17.10823 2.44699 -25.43259 -8.922338 -89.86217 20.41054 26.66637 0 0 -28.302 0.4969379 8.257369 22.78671
